{
    "asset" : {
        "generator" : "Khronos glTF Blender I/O v1.1.45",
        "version" : "2.0"
    },
    "scene" : 0,
    "scenes" : [
        {
            "name" : "Scene",
            "nodes" : [
                3
            ]
        }
    ],
    "nodes" : [
        {
            "name" : "Bone.001",
            "rotation" : [
                -0.001818173099309206,
                -5.644409184820943e-17,
                -5.624599863511524e-17,
                0.9999984502792358
            ],
            "translation" : [
                0,
                1.963363528251648,
                -5.877471754111438e-39
            ]
        },
        {
            "children" : [
                0
            ],
            "name" : "Bone",
            "rotation" : [
                -6.047974270962333e-33,
                -5.447530934610462e-17,
                -5.447530934610462e-17,
                1
            ]
        },
        {
            "mesh" : 0,
            "name" : "Cylinder",
            "skin" : 0
        },
        {
            "children" : [
                2,
                1
            ],
            "name" : "Armature"
        }
    ],
    "animations" : [
        {
            "channels" : [
                {
                    "sampler" : 0,
                    "target" : {
                        "node" : 1,
                        "path" : "translation"
                    }
                },
                {
                    "sampler" : 1,
                    "target" : {
                        "node" : 1,
                        "path" : "rotation"
                    }
                },
                {
                    "sampler" : 2,
                    "target" : {
                        "node" : 1,
                        "path" : "scale"
                    }
                },
                {
                    "sampler" : 3,
                    "target" : {
                        "node" : 0,
                        "path" : "translation"
                    }
                },
                {
                    "sampler" : 4,
                    "target" : {
                        "node" : 0,
                        "path" : "rotation"
                    }
                },
                {
                    "sampler" : 5,
                    "target" : {
                        "node" : 0,
                        "path" : "scale"
                    }
                }
            ],
            "name" : "ArmatureAction",
            "samplers" : [
                {
                    "input" : 6,
                    "interpolation" : "LINEAR",
                    "output" : 7
                },
                {
                    "input" : 6,
                    "interpolation" : "LINEAR",
                    "output" : 8
                },
                {
                    "input" : 6,
                    "interpolation" : "LINEAR",
                    "output" : 9
                },
                {
                    "input" : 6,
                    "interpolation" : "LINEAR",
                    "output" : 10
                },
                {
                    "input" : 6,
                    "interpolation" : "LINEAR",
                    "output" : 11
                },
                {
                    "input" : 6,
                    "interpolation" : "LINEAR",
                    "output" : 12
                }
            ]
        }
    ],
    "meshes" : [
        {
            "name" : "Cylinder",
            "primitives" : [
                {
                    "attributes" : {
                        "POSITION" : 0,
                        "NORMAL" : 1,
                        "JOINTS_0" : 2,
                        "WEIGHTS_0" : 3
                    },
                    "indices" : 4
                }
            ]
        }
    ],
    "skins" : [
        {
            "inverseBindMatrices" : 5,
            "joints" : [
                1,
                0
            ],
            "name" : "Armature"
        }
    ],
    "accessors" : [
        {
            "bufferView" : 0,
            "componentType" : 5126,
            "count" : 2074,
            "max" : [
                1,
                3.9558234214782715,
                1
            ],
            "min" : [
                -1.0000001192092896,
                0,
                -1
            ],
            "type" : "VEC3"
        },
        {
            "bufferView" : 1,
            "componentType" : 5126,
            "count" : 2074,
            "type" : "VEC3"
        },
        {
            "bufferView" : 2,
            "componentType" : 5123,
            "count" : 2074,
            "type" : "VEC4"
        },
        {
            "bufferView" : 3,
            "componentType" : 5126,
            "count" : 2074,
            "type" : "VEC4"
        },
        {
            "bufferView" : 4,
            "componentType" : 5123,
            "count" : 3828,
            "type" : "SCALAR"
        },
        {
            "bufferView" : 5,
            "componentType" : 5126,
            "count" : 2,
            "type" : "MAT4"
        },
        {
            "bufferView" : 6,
            "componentType" : 5126,
            "count" : 50,
            "max" : [
                2.0833333333333335
            ],
            "min" : [
                0.041666666666666664
            ],
            "type" : "SCALAR"
        },
        {
            "bufferView" : 7,
            "componentType" : 5126,
            "count" : 50,
            "type" : "VEC3"
        },
        {
            "bufferView" : 8,
            "componentType" : 5126,
            "count" : 50,
            "type" : "VEC4"
        },
        {
            "bufferView" : 9,
            "componentType" : 5126,
            "count" : 50,
            "type" : "VEC3"
        },
        {
            "bufferView" : 10,
            "componentType" : 5126,
            "count" : 50,
            "type" : "VEC3"
        },
        {
            "bufferView" : 11,
            "componentType" : 5126,
            "count" : 50,
            "type" : "VEC4"
        },
        {
            "bufferView" : 12,
            "componentType" : 5126,
            "count" : 50,
            "type" : "VEC3"
        }
    ],
    "bufferViews" : [
        {
            "buffer" : 0,
            "byteLength" : 24888,
            "byteOffset" : 0
        },
        {
            "buffer" : 0,
            "byteLength" : 24888,
            "byteOffset" : 24888
        },
        {
            "buffer" : 0,
            "byteLength" : 16592,
            "byteOffset" : 49776
        },
        {
            "buffer" : 0,
            "byteLength" : 33184,
            "byteOffset" : 66368
        },
        {
            "buffer" : 0,
            "byteLength" : 7656,
            "byteOffset" : 99552
        },
        {
            "buffer" : 0,
            "byteLength" : 128,
            "byteOffset" : 107208
        },
        {
            "buffer" : 0,
            "byteLength" : 200,
            "byteOffset" : 107336
        },
        {
            "buffer" : 0,
            "byteLength" : 600,
            "byteOffset" : 107536
        },
        {
            "buffer" : 0,
            "byteLength" : 800,
            "byteOffset" : 108136
        },
        {
            "buffer" : 0,
            "byteLength" : 600,
            "byteOffset" : 108936
        },
        {
            "buffer" : 0,
            "byteLength" : 600,
            "byteOffset" : 109536
        },
        {
            "buffer" : 0,
            "byteLength" : 800,
            "byteOffset" : 110136
        },
        {
            "buffer" : 0,
            "byteLength" : 600,
            "byteOffset" : 110936
        }
    ],
    "buffers" : [
        {
            "byteLength" : 111536,
            "uri" : "cylinder.bin"
        }
    ]
}
